 http://www.torrentday.com - Your Key To The Scene.

 
http://www.torrentday.com :  Clean RAR Scene Releases!


Enjoy =)

...................................NFO:....................................

.EEEEEEEEEEEEEEEEEEEEEEXXXXXXX       XXXXXXXVVVVVVVV           VVVVVVVV iiii  DDDDDDDDDDDDD        
E::::::::::::::::::::EX:::::X       X:::::XV::::::V           V::::::Vi::::i D::::::::::::DDD     
E::::::::::::::::::::EX:::::X       X:::::XV::::::V           V::::::V iiii  D:::::::::::::::DD   
EE::::::EEEEEEEEE::::EX::::::X     X::::::XV::::::V           V::::::V       DDD:::::DDDDD:::::D  
  E:::::E       EEEEEEXXX:::::X   X:::::XXX V:::::V           V:::::Viiiiiii   D:::::D    D:::::D 
  E:::::E                X:::::X X:::::X     V:::::V         V:::::V i:::::i   D:::::D     D:::::D
  E::::::EEEEEEEEEE       X:::::X:::::X       V:::::V       V:::::V   i::::i   D:::::D     D:::::D
  E:::::::::::::::E        X:::::::::X         V:::::V     V:::::V    i::::i   D:::::D     D:::::D
  E:::::::::::::::E        X:::::::::X          V:::::V   V:::::V     i::::i   D:::::D     D:::::D
  E::::::EEEEEEEEEE       X:::::X:::::X          V:::::V V:::::V      i::::i   D:::::D     D:::::D
  E:::::E                X:::::X X:::::X          V:::::V:::::V       i::::i   D:::::D     D:::::D
  E:::::E       EEEEEEXXX:::::X   X:::::XXX        V:::::::::V        i::::i   D:::::D    D:::::D 
EE::::::EEEEEEEE:::::EX::::::X     X::::::X         V:::::::V        i::::::iDDD:::::DDDDD:::::D  
E::::::::::::::::::::EX:::::X       X:::::X          V:::::V         i::::::iD:::::::::::::::DD   
E::::::::::::::::::::EX:::::X       X:::::X           V:::V          i::::::iD::::::::::::DDD     
EEEEEEEEEEEEEEEEEEEEEEXXXXXXX       XXXXXXX            VVV           iiiiiiiiDDDDDDDDDDDDD        

EXViD aims to iNTERNAL those releases which have been lost in the archives.
EXViD aims to PRE non-internal releases which have poor sources and are likely skipped by others.

Around.Five.The.Making.Of.2005.DVDRip.XviD-EXViD 
http://www.imdb.com/title/tt0409965/
Subtitles: English French
Date: 2010.02

Director: Abbas Kiarostami
Genre: Documentary  
Plot: The making of Five: Dedicated to Ozu (2005)

Stats:
Format                           : AVI
Format/Info                      : Audio Video Interleave
File size                        : 696 MiB
Duration                         : 51mn 12s
Overall bit rate                 : 1 901 Kbps
Writing application              : VirtualDubMod 1.5.10.2 (build 2542/release)
Writing library                  : VirtualDubMod build 2542/release

Video
ID                               : 0
Format                           : MPEG-4 Visual
Format profile                   : AdvancedSimple@L5
Format settings, BVOP            : Yes
Format settings, QPel            : No
Format settings, GMC             : No warppoints
Format settings, Matrix          : Default (H.263)
Codec ID                         : XVID
Codec ID/Hint                    : XviD
Duration                         : 51mn 12s
Bit rate                         : 1 697 Kbps
Width                            : 640 pixels
Height                           : 464 pixels
Display aspect ratio             : 1.379
Frame rate                       : 29.970 fps
Resolution                       : 24 bits
Colorimetry                      : 4:2:0
Scan type                        : Progressive
Bits/(Pixel*Frame)               : 0.191
Stream size                      : 622 MiB (89%)
Writing library                  : XviD 1.1.2 (UTC 2006-11-01)

Audio
ID                               : 1
Format                           : AC-3
Format/Info                      : Audio Coding 3
Codec ID                         : 2000
Duration                         : 51mn 11s
Bit rate mode                    : Constant
Bit rate                         : 192 Kbps
Channel(s)                       : 2 channels
Channel positions                : L R
Sampling rate                    : 48.0 KHz
Stream size                      : 70.3 MiB (10%)
Alignment                        : Split accross interleaves
Interleave, duration             : 33 ms (1.00 video frame)
Interleave, preload duration     : 500 ms


Release notes:
enjoy!

Looking for:
75TB+ Archives

Greets:
CRBS EPiSODE FiCO FLS iLS KLASSiGER LiPSYNC MADE NODLABS RUNNER TNAN